STARTFONT 2.1
COMMENT
COMMENT Needed a 4x4 font. Definitely was a challenge to make some glyphs that could
COMMENT align to a 4x4 grid. Originally meant for FlightGazer.
COMMENT
FONT -NMRFoundry-4by4-Medium-R-Normal--5-50-72-72-M-38-ISO10646-1
SIZE 5 72 72
FONTBOUNDINGBOX 4 4 0 0
STARTPROPERTIES 19
FOUNDRY "NMRFoundry"
FAMILY_NAME "4by4"
WEIGHT_NAME "Medium"
SLANT "R"
SETWIDTH_NAME "Normal"
ADD_STYLE_NAME ""
PIXEL_SIZE 5
POINT_SIZE 50
RESOLUTION_X 72
RESOLUTION_Y 72
SPACING "M"
AVERAGE_WIDTH 38
CHARSET_REGISTRY "ISO10646"
CHARSET_ENCODING "1"
FONT_ASCENT 4
FONT_DESCENT 0
COPYRIGHT "WeegeeNumbuh1, 2025"
ENDPROPERTIES
CHARS 95
STARTCHAR $0020
ENCODING 32
SWIDTH 1000 0
DWIDTH 5 0
BBX 0 0 2 0
BITMAP
ENDCHAR
STARTCHAR $0021
ENCODING 33
SWIDTH 1000 0
DWIDTH 5 0
BBX 1 4 1 0
BITMAP
80
80
00
80
ENDCHAR
STARTCHAR $0022
ENCODING 34
SWIDTH 1000 0
DWIDTH 5 0
BBX 3 2 1 2
BITMAP
A0
A0
ENDCHAR
STARTCHAR $0023
ENCODING 35
SWIDTH 1000 0
DWIDTH 5 0
BBX 4 4 0 0
BITMAP
A0
F0
A0
F0
ENDCHAR
STARTCHAR $0024
ENCODING 36
SWIDTH 1000 0
DWIDTH 5 0
BBX 4 4 0 0
BITMAP
70
A0
50
E0
ENDCHAR
STARTCHAR $0025
ENCODING 37
SWIDTH 1000 0
DWIDTH 5 0
BBX 4 4 0 0
BITMAP
90
20
40
90
ENDCHAR
STARTCHAR $0026
ENCODING 38
SWIDTH 1000 0
DWIDTH 5 0
BBX 4 4 0 0
BITMAP
40
A0
40
B0
ENDCHAR
STARTCHAR $0027
ENCODING 39
SWIDTH 1000 0
DWIDTH 5 0
BBX 1 2 1 2
BITMAP
80
80
ENDCHAR
STARTCHAR $0028
ENCODING 40
SWIDTH 1000 0
DWIDTH 5 0
BBX 2 4 0 0
BITMAP
40
80
80
40
ENDCHAR
STARTCHAR $0029
ENCODING 41
SWIDTH 1000 0
DWIDTH 5 0
BBX 2 4 0 0
BITMAP
80
40
40
80
ENDCHAR
STARTCHAR $002A
ENCODING 42
SWIDTH 1000 0
DWIDTH 5 0
BBX 3 4 0 0
BITMAP
40
E0
40
A0
ENDCHAR
STARTCHAR $002B
ENCODING 43
SWIDTH 1000 0
DWIDTH 5 0
BBX 3 3 0 0
BITMAP
40
E0
40
ENDCHAR
STARTCHAR $002C
ENCODING 44
SWIDTH 1000 0
DWIDTH 5 0
BBX 2 2 0 0
BITMAP
40
80
ENDCHAR
STARTCHAR $002D
ENCODING 45
SWIDTH 1000 0
DWIDTH 5 0
BBX 3 1 0 1
BITMAP
E0
ENDCHAR
STARTCHAR $002E
ENCODING 46
SWIDTH 1000 0
DWIDTH 5 0
BBX 1 1 1 0
BITMAP
80
ENDCHAR
STARTCHAR $002F
ENCODING 47
SWIDTH 1000 0
DWIDTH 5 0
BBX 4 4 0 0
BITMAP
10
20
40
80
ENDCHAR
STARTCHAR $0030
ENCODING 48
SWIDTH 1000 0
DWIDTH 5 0
BBX 4 4 0 0
BITMAP
60
B0
D0
60
ENDCHAR
STARTCHAR $0031
ENCODING 49
SWIDTH 1000 0
DWIDTH 5 0
BBX 2 4 1 0
BITMAP
40
C0
40
40
ENDCHAR
STARTCHAR $0032
ENCODING 50
SWIDTH 1000 0
DWIDTH 5 0
BBX 4 4 0 0
BITMAP
60
90
20
F0
ENDCHAR
STARTCHAR $0033
ENCODING 51
SWIDTH 1000 0
DWIDTH 5 0
BBX 4 4 0 0
BITMAP
F0
70
10
E0
ENDCHAR
STARTCHAR $0034
ENCODING 52
SWIDTH 1000 0
DWIDTH 5 0
BBX 4 4 0 0
BITMAP
50
90
70
10
ENDCHAR
STARTCHAR $0035
ENCODING 53
SWIDTH 1000 0
DWIDTH 5 0
BBX 4 4 0 0
BITMAP
F0
C0
30
E0
ENDCHAR
STARTCHAR $0036
ENCODING 54
SWIDTH 1000 0
DWIDTH 5 0
BBX 4 4 0 0
BITMAP
60
80
F0
60
ENDCHAR
STARTCHAR $0037
ENCODING 55
SWIDTH 1000 0
DWIDTH 5 0
BBX 4 4 0 0
BITMAP
F0
20
40
80
ENDCHAR
STARTCHAR $0038
ENCODING 56
SWIDTH 1000 0
DWIDTH 5 0
BBX 4 4 0 0
BITMAP
60
D0
60
B0
ENDCHAR
STARTCHAR $0039
ENCODING 57
SWIDTH 1000 0
DWIDTH 5 0
BBX 4 4 0 0
BITMAP
60
90
70
10
ENDCHAR
STARTCHAR $003A
ENCODING 58
SWIDTH 1000 0
DWIDTH 5 0
BBX 1 3 1 0
BITMAP
80
00
80
ENDCHAR
STARTCHAR $003B
ENCODING 59
SWIDTH 1000 0
DWIDTH 5 0
BBX 2 4 1 0
BITMAP
40
00
40
80
ENDCHAR
STARTCHAR $003C
ENCODING 60
SWIDTH 1000 0
DWIDTH 5 0
BBX 2 3 0 0
BITMAP
40
80
40
ENDCHAR
STARTCHAR $003D
ENCODING 61
SWIDTH 1000 0
DWIDTH 5 0
BBX 3 3 0 0
BITMAP
E0
00
E0
ENDCHAR
STARTCHAR $003E
ENCODING 62
SWIDTH 1000 0
DWIDTH 5 0
BBX 2 3 1 0
BITMAP
80
40
80
ENDCHAR
STARTCHAR $003F
ENCODING 63
SWIDTH 1000 0
DWIDTH 5 0
BBX 3 4 0 0
BITMAP
E0
20
00
40
ENDCHAR
STARTCHAR $0040
ENCODING 64
SWIDTH 1000 0
DWIDTH 5 0
BBX 3 4 1 0
BITMAP
C0
60
A0
60
ENDCHAR
STARTCHAR $0041
ENCODING 65
SWIDTH 1000 0
DWIDTH 5 0
BBX 4 4 0 0
BITMAP
60
90
F0
90
ENDCHAR
STARTCHAR $0042
ENCODING 66
SWIDTH 1000 0
DWIDTH 5 0
BBX 4 4 0 0
BITMAP
F0
E0
90
E0
ENDCHAR
STARTCHAR $0043
ENCODING 67
SWIDTH 1000 0
DWIDTH 5 0
BBX 4 4 0 0
BITMAP
70
80
80
70
ENDCHAR
STARTCHAR $0044
ENCODING 68
SWIDTH 1000 0
DWIDTH 5 0
BBX 4 4 0 0
BITMAP
E0
90
90
E0
ENDCHAR
STARTCHAR $0045
ENCODING 69
SWIDTH 1000 0
DWIDTH 5 0
BBX 4 4 0 0
BITMAP
F0
E0
80
F0
ENDCHAR
STARTCHAR $0046
ENCODING 70
SWIDTH 1000 0
DWIDTH 5 0
BBX 4 4 0 0
BITMAP
F0
80
E0
80
ENDCHAR
STARTCHAR $0047
ENCODING 71
SWIDTH 1000 0
DWIDTH 5 0
BBX 4 4 0 0
BITMAP
60
80
90
70
ENDCHAR
STARTCHAR $0048
ENCODING 72
SWIDTH 1000 0
DWIDTH 5 0
BBX 4 4 0 0
BITMAP
50
50
F0
50
ENDCHAR
STARTCHAR $0049
ENCODING 73
SWIDTH 1000 0
DWIDTH 5 0
BBX 3 4 0 0
BITMAP
E0
40
40
E0
ENDCHAR
STARTCHAR $004A
ENCODING 74
SWIDTH 1000 0
DWIDTH 5 0
BBX 4 4 0 0
BITMAP
30
10
90
60
ENDCHAR
STARTCHAR $004B
ENCODING 75
SWIDTH 1000 0
DWIDTH 5 0
BBX 4 4 0 0
BITMAP
90
A0
E0
90
ENDCHAR
STARTCHAR $004C
ENCODING 76
SWIDTH 1000 0
DWIDTH 5 0
BBX 4 4 0 0
BITMAP
80
80
80
F0
ENDCHAR
STARTCHAR $004D
ENCODING 77
SWIDTH 1000 0
DWIDTH 5 0
BBX 4 4 0 0
BITMAP
90
F0
90
90
ENDCHAR
STARTCHAR $004E
ENCODING 78
SWIDTH 1000 0
DWIDTH 5 0
BBX 4 4 0 0
BITMAP
90
D0
B0
90
ENDCHAR
STARTCHAR $004F
ENCODING 79
SWIDTH 1000 0
DWIDTH 5 0
BBX 4 4 0 0
BITMAP
60
90
90
60
ENDCHAR
STARTCHAR $0050
ENCODING 80
SWIDTH 1000 0
DWIDTH 5 0
BBX 4 4 0 0
BITMAP
E0
90
E0
80
ENDCHAR
STARTCHAR $0051
ENCODING 81
SWIDTH 1000 0
DWIDTH 5 0
BBX 4 4 0 0
BITMAP
60
90
B0
70
ENDCHAR
STARTCHAR $0052
ENCODING 82
SWIDTH 1000 0
DWIDTH 5 0
BBX 4 4 0 0
BITMAP
E0
90
E0
90
ENDCHAR
STARTCHAR $0053
ENCODING 83
SWIDTH 1000 0
DWIDTH 5 0
BBX 4 4 0 0
BITMAP
70
C0
30
E0
ENDCHAR
STARTCHAR $0054
ENCODING 84
SWIDTH 1000 0
DWIDTH 5 0
BBX 3 4 0 0
BITMAP
E0
40
40
40
ENDCHAR
STARTCHAR $0055
ENCODING 85
SWIDTH 1000 0
DWIDTH 5 0
BBX 4 4 0 0
BITMAP
90
90
90
60
ENDCHAR
STARTCHAR $0056
ENCODING 86
SWIDTH 1000 0
DWIDTH 5 0
BBX 3 4 0 0
BITMAP
A0
A0
A0
40
ENDCHAR
STARTCHAR $0057
ENCODING 87
SWIDTH 1000 0
DWIDTH 5 0
BBX 4 4 0 0
BITMAP
90
90
F0
90
ENDCHAR
STARTCHAR $0058
ENCODING 88
SWIDTH 1000 0
DWIDTH 5 0
BBX 4 4 0 0
BITMAP
90
60
60
90
ENDCHAR
STARTCHAR $0059
ENCODING 89
SWIDTH 1000 0
DWIDTH 5 0
BBX 4 4 0 0
BITMAP
90
60
40
80
ENDCHAR
STARTCHAR $005A
ENCODING 90
SWIDTH 1000 0
DWIDTH 5 0
BBX 4 4 0 0
BITMAP
F0
20
40
F0
ENDCHAR
STARTCHAR $005B
ENCODING 91
SWIDTH 1000 0
DWIDTH 5 0
BBX 2 4 0 0
BITMAP
C0
80
80
C0
ENDCHAR
STARTCHAR $005C
ENCODING 92
SWIDTH 1000 0
DWIDTH 5 0
BBX 4 4 0 0
BITMAP
80
40
20
10
ENDCHAR
STARTCHAR $005D
ENCODING 93
SWIDTH 1000 0
DWIDTH 5 0
BBX 2 4 0 0
BITMAP
C0
40
40
C0
ENDCHAR
STARTCHAR $005E
ENCODING 94
SWIDTH 1000 0
DWIDTH 5 0
BBX 3 2 0 2
BITMAP
40
A0
ENDCHAR
STARTCHAR $005F
ENCODING 95
SWIDTH 1000 0
DWIDTH 5 0
BBX 4 1 0 0
BITMAP
F0
ENDCHAR
STARTCHAR $0060
ENCODING 96
SWIDTH 1000 0
DWIDTH 5 0
BBX 2 2 0 2
BITMAP
80
40
ENDCHAR
STARTCHAR $0061
ENCODING 97
SWIDTH 1000 0
DWIDTH 5 0
BBX 3 3 1 0
BITMAP
60
A0
60
ENDCHAR
STARTCHAR $0062
ENCODING 98
SWIDTH 1000 0
DWIDTH 5 0
BBX 4 4 0 0
BITMAP
80
E0
90
E0
ENDCHAR
STARTCHAR $0063
ENCODING 99
SWIDTH 1000 0
DWIDTH 5 0
BBX 3 3 0 0
BITMAP
60
80
60
ENDCHAR
STARTCHAR $0064
ENCODING 100
SWIDTH 1000 0
DWIDTH 5 0
BBX 4 4 0 0
BITMAP
10
70
90
70
ENDCHAR
STARTCHAR $0065
ENCODING 101
SWIDTH 1000 0
DWIDTH 5 0
BBX 4 4 0 0
BITMAP
60
90
E0
70
ENDCHAR
STARTCHAR $0066
ENCODING 102
SWIDTH 1000 0
DWIDTH 5 0
BBX 4 4 0 0
BITMAP
70
80
E0
80
ENDCHAR
STARTCHAR $0067
ENCODING 103
SWIDTH 1000 0
DWIDTH 5 0
BBX 4 4 0 0
BITMAP
60
90
70
E0
ENDCHAR
STARTCHAR $0068
ENCODING 104
SWIDTH 1000 0
DWIDTH 5 0
BBX 4 4 0 0
BITMAP
80
E0
90
90
ENDCHAR
STARTCHAR $0069
ENCODING 105
SWIDTH 1000 0
DWIDTH 5 0
BBX 1 4 2 0
BITMAP
80
00
80
80
ENDCHAR
STARTCHAR $006A
ENCODING 106
SWIDTH 1000 0
DWIDTH 5 0
BBX 3 4 1 0
BITMAP
60
20
A0
40
ENDCHAR
STARTCHAR $006B
ENCODING 107
SWIDTH 1000 0
DWIDTH 5 0
BBX 4 4 0 0
BITMAP
80
A0
C0
B0
ENDCHAR
STARTCHAR $006C
ENCODING 108
SWIDTH 1000 0
DWIDTH 5 0
BBX 3 4 0 0
BITMAP
C0
40
40
60
ENDCHAR
STARTCHAR $006D
ENCODING 109
SWIDTH 1000 0
DWIDTH 5 0
BBX 4 3 0 0
BITMAP
E0
D0
90
ENDCHAR
STARTCHAR $006E
ENCODING 110
SWIDTH 1000 0
DWIDTH 5 0
BBX 4 3 0 0
BITMAP
E0
90
90
ENDCHAR
STARTCHAR $006F
ENCODING 111
SWIDTH 1000 0
DWIDTH 5 0
BBX 4 3 0 0
BITMAP
60
90
60
ENDCHAR
STARTCHAR $0070
ENCODING 112
SWIDTH 1000 0
DWIDTH 5 0
BBX 4 4 0 0
BITMAP
60
90
E0
80
ENDCHAR
STARTCHAR $0071
ENCODING 113
SWIDTH 1000 0
DWIDTH 5 0
BBX 4 4 0 0
BITMAP
60
90
70
10
ENDCHAR
STARTCHAR $0072
ENCODING 114
SWIDTH 1000 0
DWIDTH 5 0
BBX 4 3 0 0
BITMAP
B0
C0
80
ENDCHAR
STARTCHAR $0073
ENCODING 115
SWIDTH 1000 0
DWIDTH 5 0
BBX 4 4 0 0
BITMAP
60
C0
30
E0
ENDCHAR
STARTCHAR $0074
ENCODING 116
SWIDTH 1000 0
DWIDTH 5 0
BBX 4 4 0 0
BITMAP
40
F0
40
70
ENDCHAR
STARTCHAR $0075
ENCODING 117
SWIDTH 1000 0
DWIDTH 5 0
BBX 4 3 0 0
BITMAP
90
90
60
ENDCHAR
STARTCHAR $0076
ENCODING 118
SWIDTH 1000 0
DWIDTH 5 0
BBX 3 3 0 0
BITMAP
A0
A0
40
ENDCHAR
STARTCHAR $0077
ENCODING 119
SWIDTH 1000 0
DWIDTH 5 0
BBX 4 3 0 0
BITMAP
90
F0
F0
ENDCHAR
STARTCHAR $0078
ENCODING 120
SWIDTH 1000 0
DWIDTH 5 0
BBX 4 3 0 0
BITMAP
90
60
90
ENDCHAR
STARTCHAR $0079
ENCODING 121
SWIDTH 1000 0
DWIDTH 5 0
BBX 4 4 0 0
BITMAP
90
70
10
E0
ENDCHAR
STARTCHAR $007A
ENCODING 122
SWIDTH 1000 0
DWIDTH 5 0
BBX 3 4 1 0
BITMAP
E0
40
80
E0
ENDCHAR
STARTCHAR $007B
ENCODING 123
SWIDTH 1000 0
DWIDTH 5 0
BBX 3 4 0 0
BITMAP
60
C0
40
60
ENDCHAR
STARTCHAR $007C
ENCODING 124
SWIDTH 1000 0
DWIDTH 5 0
BBX 1 4 2 0
BITMAP
80
80
80
80
ENDCHAR
STARTCHAR $007D
ENCODING 125
SWIDTH 1000 0
DWIDTH 5 0
BBX 3 4 0 0
BITMAP
C0
60
40
C0
ENDCHAR
STARTCHAR $007E
ENCODING 126
SWIDTH 1000 0
DWIDTH 5 0
BBX 4 2 0 1
BITMAP
50
A0
ENDCHAR
ENDFONT
